<svg xmlns="http://www.w3.org/2000/svg" version="1.1" xmlns:xlink="http://www.w3.org/1999/xlink" width="16" height="16"><svg version="1.1" id="SvgjsSvg1016" xmlns="http://www.w3.org/2000/svg" xmlns:xlink="http://www.w3.org/1999/xlink" x="0px" y="0px" viewBox="0 0 16 16" style="enable-background:new 0 0 16 16;" xml:space="preserve">
<style type="text/css">
	.st0{fill-rule:evenodd;clip-rule:evenodd;fill:#6366F1;}
</style>
<path class="st0" d="M2,15.5V2c0-1.1,0.9-2,2-2h8c1.1,0,2,0.9,2,2v13.5c0,0.3-0.2,0.5-0.5,0.5c-0.1,0-0.2,0-0.2-0.1L8,13.1l-5.3,2.9
	c-0.2,0.1-0.5,0-0.7-0.2C2,15.7,2,15.6,2,15.5 M8.2,4.1C8.1,4,8,4,7.9,4c0,0-0.1,0-0.1,0.1L7.2,5.4c0,0.1-0.1,0.1-0.1,0.1L5.7,5.7
	c-0.1,0-0.2,0.1-0.1,0.2c0,0,0,0.1,0.1,0.1l1,1c0,0,0.1,0.1,0.1,0.2L6.4,8.6c0,0.1,0,0.2,0.1,0.2c0,0,0.1,0,0.1,0l1.3-0.7
	c0.1,0,0.1,0,0.2,0l1.3,0.7c0.1,0,0.2,0,0.2-0.1c0,0,0-0.1,0-0.1L9.4,7.2c0-0.1,0-0.1,0.1-0.2l1-1c0.1-0.1,0.1-0.2,0-0.3
	c0,0-0.1,0-0.1-0.1L8.9,5.5c-0.1,0-0.1,0-0.1-0.1L8.2,4.1z"></path>
</svg><style>@media (prefers-color-scheme: light) { :root { filter: none; } }
@media (prefers-color-scheme: dark) { :root { filter: none; } }
</style></svg>